<?xml version="1.0" standalone="no"?>
<!DOCTYPE svg PUBLIC "-//W3C//DTD SVG 20010904//EN"
 "http://www.w3.org/TR/2001/REC-SVG-20010904/DTD/svg10.dtd">
<svg version="1.0" xmlns="http://www.w3.org/2000/svg"
 width="937.000000pt" height="768.000000pt" viewBox="0 0 937.000000 768.000000"
 preserveAspectRatio="xMidYMid meet">

<g transform="translate(0.000000,768.000000) scale(0.100000,-0.100000)"
fill="#000000" stroke="none">
<path d="M8721 7574 c-37 -321 -211 -590 -489 -758 -78 -47 -158 -80 -272
-114 -49 -14 -175 -17 -1085 -22 -716 -5 -1051 -10 -1100 -19 -379 -63 -671
-209 -926 -461 -171 -169 -286 -342 -372 -555 -74 -184 -117 -383 -117 -537
l0 -78 319 0 318 0 6 88 c8 118 39 228 97 347 57 118 121 206 217 296 120 113
245 185 409 236 l89 27 1035 7 c1109 6 1089 5 1291 59 288 75 542 224 757 442
280 284 440 644 468 1051 l7 97 -320 0 -319 0 -13 -106z"/>
<path d="M2160 4835 c-561 -68 -1056 -310 -1452 -712 -375 -378 -604 -839
-685 -1373 -24 -159 -24 -520 0 -681 93 -623 409 -1178 889 -1563 281 -225
647 -403 993 -481 108 -24 118 -25 540 -25 l430 0 125 29 c403 94 771 288
1092 574 l97 87 488 0 489 0 80 -73 c266 -242 565 -419 889 -525 281 -93 285
-94 806 -90 l454 4 130 37 c295 82 547 199 780 362 341 238 608 549 790 920
89 181 135 305 180 479 48 188 66 325 72 541 12 416 -67 774 -253 1152 -325
662 -959 1152 -1686 1303 -247 51 -174 50 -2748 49 -1873 -1 -2418 -4 -2500
-14z m5046 -647 c139 -27 320 -82 431 -132 912 -410 1320 -1465 918 -2377
-199 -454 -604 -822 -1075 -980 -185 -61 -296 -80 -515 -86 -215 -6 -341 6
-501 48 -358 92 -687 297 -924 574 l-82 95 -783 0 -783 0 -66 -79 c-262 -314
-627 -530 -1038 -613 -98 -20 -143 -23 -343 -23 -199 0 -245 3 -342 23 -457
92 -858 351 -1129 727 -77 107 -201 353 -243 483 -99 301 -115 639 -45 949
169 753 791 1315 1554 1402 41 5 1155 8 2475 7 2220 -1 2407 -3 2491 -18z"/>
<path d="M2206 3480 c-34 -11 -81 -53 -104 -95 -15 -26 -17 -73 -20 -322 l-3
-293 -276 0 c-181 0 -289 -4 -315 -12 -49 -14 -103 -74 -118 -129 -7 -26 -10
-116 -8 -248 3 -207 3 -208 31 -249 52 -79 66 -82 397 -82 l290 0 0 -267 c0
-148 5 -288 11 -312 13 -58 42 -97 89 -121 36 -18 60 -20 265 -20 205 0 229 2
265 20 90 46 100 88 100 428 l0 272 290 0 c331 0 345 3 397 82 28 41 28 41 31
252 2 138 0 224 -8 249 -15 52 -74 114 -118 127 -21 5 -158 10 -314 10 l-277
0 -3 293 c-3 249 -5 296 -20 322 -24 44 -70 84 -109 95 -41 12 -433 12 -473 0z"/>
<path d="M6825 3481 c-108 -28 -198 -102 -243 -199 -23 -49 -27 -70 -27 -152
0 -88 3 -101 33 -162 37 -77 90 -128 172 -167 47 -22 68 -26 145 -26 82 0 97
3 157 33 129 63 201 179 201 322 0 194 -142 345 -334 355 -41 2 -87 1 -104 -4z"/>
<path d="M6090 2755 c-102 -29 -176 -91 -231 -195 -21 -39 -24 -59 -24 -150 0
-89 3 -112 23 -152 35 -70 93 -131 164 -169 60 -32 68 -34 163 -34 95 0 103 2
163 34 127 69 195 181 195 323 0 65 -5 87 -32 145 -76 161 -253 245 -421 198z"/>
<path d="M7547 2760 c-101 -26 -206 -113 -250 -208 -18 -38 -22 -66 -22 -142
0 -82 4 -103 27 -152 34 -73 103 -142 176 -176 49 -23 70 -27 152 -27 83 0
102 3 150 27 75 37 137 100 174 178 27 57 31 76 31 150 0 76 -3 93 -32 151
-60 121 -171 196 -300 204 -37 2 -85 0 -106 -5z"/>
<path d="M6834 2040 c-111 -23 -224 -121 -264 -228 -18 -47 -21 -73 -18 -142
3 -73 9 -94 38 -148 37 -71 97 -128 168 -163 67 -34 224 -34 294 -2 157 72
245 252 204 414 -48 188 -237 308 -422 269z"/>
</g>
</svg>
